<mxfile host="app.diagrams.net" agent="Mozilla/5.0 (Windows NT 10.0; Win64; x64; rv:144.0) Gecko/20100101 Firefox/144.0" version="28.2.7">
  <diagram name="Page-1" id="DdtK2W1SqwpSfvpK938a">
    <mxGraphModel dx="983" dy="547" grid="1" gridSize="10" guides="1" tooltips="1" connect="1" arrows="1" fold="1" page="1" pageScale="1" pageWidth="850" pageHeight="1100" math="0" shadow="0" adaptiveColors="simple">
      <root>
        <mxCell id="0" />
        <mxCell id="1" parent="0" />
        <mxCell id="cIf180iwZ4gJFKfaal7i-22" value="" style="swimlane;startSize=0;align=center;strokeWidth=2;" parent="1" vertex="1">
          <mxGeometry x="100" y="50" width="650" height="390" as="geometry" />
        </mxCell>
        <mxCell id="sRIAlLMjHyxSv_8Lx8CN-2" value="&lt;div&gt;&amp;lt;&amp;lt;Interface&amp;gt;&amp;gt;&lt;/div&gt;&lt;div&gt;TramoDAO&lt;/div&gt;" style="swimlane;fontStyle=0;childLayout=stackLayout;horizontal=1;startSize=40;horizontalStack=0;resizeParent=1;resizeParentMax=0;resizeLast=0;collapsible=1;marginBottom=0;whiteSpace=wrap;html=1;" parent="cIf180iwZ4gJFKfaal7i-22" vertex="1">
          <mxGeometry x="50" y="30" width="210" height="70" as="geometry" />
        </mxCell>
        <mxCell id="sRIAlLMjHyxSv_8Lx8CN-3" value="buscarTodos(): Map&amp;lt;String, Tramo&amp;gt;" style="text;strokeColor=none;fillColor=none;align=left;verticalAlign=middle;spacingLeft=4;spacingRight=4;overflow=hidden;points=[[0,0.5],[1,0.5]];portConstraint=eastwest;rotatable=0;whiteSpace=wrap;html=1;" parent="sRIAlLMjHyxSv_8Lx8CN-2" vertex="1">
          <mxGeometry y="40" width="210" height="30" as="geometry" />
        </mxCell>
        <mxCell id="sRIAlLMjHyxSv_8Lx8CN-8" value="&lt;div&gt;&amp;lt;&amp;lt;Interface&amp;gt;&amp;gt;&lt;/div&gt;&lt;div&gt;LineaDAO&lt;/div&gt;" style="swimlane;fontStyle=0;childLayout=stackLayout;horizontal=1;startSize=40;horizontalStack=0;resizeParent=1;resizeParentMax=0;resizeLast=0;collapsible=1;marginBottom=0;whiteSpace=wrap;html=1;" parent="cIf180iwZ4gJFKfaal7i-22" vertex="1">
          <mxGeometry x="50" y="140" width="210" height="70" as="geometry" />
        </mxCell>
        <mxCell id="sRIAlLMjHyxSv_8Lx8CN-9" value="buscarTodos(): Map&amp;lt;String, Linea&amp;gt;" style="text;strokeColor=none;fillColor=none;align=left;verticalAlign=middle;spacingLeft=4;spacingRight=4;overflow=hidden;points=[[0,0.5],[1,0.5]];portConstraint=eastwest;rotatable=0;whiteSpace=wrap;html=1;" parent="sRIAlLMjHyxSv_8Lx8CN-8" vertex="1">
          <mxGeometry y="40" width="210" height="30" as="geometry" />
        </mxCell>
        <mxCell id="sRIAlLMjHyxSv_8Lx8CN-6" value="&lt;div&gt;&amp;lt;&amp;lt;Interface&amp;gt;&amp;gt;&lt;/div&gt;&lt;div&gt;ParadaDAO&lt;/div&gt;" style="swimlane;fontStyle=0;childLayout=stackLayout;horizontal=1;startSize=40;horizontalStack=0;resizeParent=1;resizeParentMax=0;resizeLast=0;collapsible=1;marginBottom=0;whiteSpace=wrap;html=1;" parent="cIf180iwZ4gJFKfaal7i-22" vertex="1">
          <mxGeometry x="45" y="265" width="220" height="70" as="geometry" />
        </mxCell>
        <mxCell id="sRIAlLMjHyxSv_8Lx8CN-7" value="buscarTodos(): Map&amp;lt;Integer, Parada&amp;gt;" style="text;strokeColor=none;fillColor=none;align=left;verticalAlign=middle;spacingLeft=4;spacingRight=4;overflow=hidden;points=[[0,0.5],[1,0.5]];portConstraint=eastwest;rotatable=0;whiteSpace=wrap;html=1;" parent="sRIAlLMjHyxSv_8Lx8CN-6" vertex="1">
          <mxGeometry y="40" width="220" height="30" as="geometry" />
        </mxCell>
        <mxCell id="sRIAlLMjHyxSv_8Lx8CN-23" value="" style="swimlane;startSize=0;align=center;strokeWidth=2;" parent="cIf180iwZ4gJFKfaal7i-22" vertex="1">
          <mxGeometry x="310" y="50" width="260" height="140" as="geometry" />
        </mxCell>
        <mxCell id="sRIAlLMjHyxSv_8Lx8CN-10" value="" style="swimlane;startSize=0;strokeWidth=2;" parent="cIf180iwZ4gJFKfaal7i-22" vertex="1">
          <mxGeometry x="310" y="20" width="110" height="30" as="geometry" />
        </mxCell>
        <mxCell id="sRIAlLMjHyxSv_8Lx8CN-11" value="Secuencial" style="text;html=1;align=center;verticalAlign=middle;resizable=0;points=[];autosize=1;strokeColor=none;fillColor=none;fontSize=16;" parent="sRIAlLMjHyxSv_8Lx8CN-10" vertex="1">
          <mxGeometry x="5" width="100" height="30" as="geometry" />
        </mxCell>
        <mxCell id="sRIAlLMjHyxSv_8Lx8CN-34" value="" style="swimlane;startSize=0;align=center;strokeWidth=2;" parent="cIf180iwZ4gJFKfaal7i-22" vertex="1">
          <mxGeometry x="310" y="230" width="260" height="140" as="geometry" />
        </mxCell>
        <mxCell id="sRIAlLMjHyxSv_8Lx8CN-35" value="" style="swimlane;startSize=0;strokeWidth=2;" parent="cIf180iwZ4gJFKfaal7i-22" vertex="1">
          <mxGeometry x="310" y="200" width="110" height="30" as="geometry" />
        </mxCell>
        <mxCell id="sRIAlLMjHyxSv_8Lx8CN-36" value="MySQL" style="text;html=1;align=center;verticalAlign=middle;resizable=0;points=[];autosize=1;strokeColor=none;fillColor=none;fontSize=16;" parent="sRIAlLMjHyxSv_8Lx8CN-35" vertex="1">
          <mxGeometry x="15" width="80" height="30" as="geometry" />
        </mxCell>
        <mxCell id="cIf180iwZ4gJFKfaal7i-23" value="" style="swimlane;startSize=0;strokeWidth=2;" parent="1" vertex="1">
          <mxGeometry x="100" y="20" width="150" height="30" as="geometry" />
        </mxCell>
        <mxCell id="cIf180iwZ4gJFKfaal7i-24" value="DAO" style="text;html=1;align=center;verticalAlign=middle;resizable=0;points=[];autosize=1;strokeColor=none;fillColor=none;fontSize=16;" parent="cIf180iwZ4gJFKfaal7i-23" vertex="1">
          <mxGeometry x="25" width="60" height="30" as="geometry" />
        </mxCell>
        <mxCell id="sRIAlLMjHyxSv_8Lx8CN-55" value="" style="swimlane;startSize=0;align=center;strokeWidth=2;" parent="1" vertex="1">
          <mxGeometry x="50" y="710" width="790" height="150" as="geometry" />
        </mxCell>
        <mxCell id="sRIAlLMjHyxSv_8Lx8CN-75" value="LineaSecuencialDAO" style="swimlane;fontStyle=0;childLayout=stackLayout;horizontal=1;startSize=40;horizontalStack=0;resizeParent=1;resizeParentMax=0;resizeLast=0;collapsible=1;marginBottom=0;whiteSpace=wrap;html=1;" parent="sRIAlLMjHyxSv_8Lx8CN-55" vertex="1">
          <mxGeometry x="20" y="40" width="250" height="70" as="geometry" />
        </mxCell>
        <mxCell id="sRIAlLMjHyxSv_8Lx8CN-76" value="+ buscarTodos(): Map&amp;lt;String, Linea&amp;gt;" style="text;strokeColor=none;fillColor=none;align=left;verticalAlign=middle;spacingLeft=4;spacingRight=4;overflow=hidden;points=[[0,0.5],[1,0.5]];portConstraint=eastwest;rotatable=0;whiteSpace=wrap;html=1;" parent="sRIAlLMjHyxSv_8Lx8CN-75" vertex="1">
          <mxGeometry y="40" width="250" height="30" as="geometry" />
        </mxCell>
        <mxCell id="sRIAlLMjHyxSv_8Lx8CN-78" value="ParadaSecuencialDAO" style="swimlane;fontStyle=0;childLayout=stackLayout;horizontal=1;startSize=40;horizontalStack=0;resizeParent=1;resizeParentMax=0;resizeLast=0;collapsible=1;marginBottom=0;whiteSpace=wrap;html=1;" parent="sRIAlLMjHyxSv_8Lx8CN-55" vertex="1">
          <mxGeometry x="290" y="40" width="230" height="70" as="geometry" />
        </mxCell>
        <mxCell id="sRIAlLMjHyxSv_8Lx8CN-80" value="+ buscarTodos(): Map&amp;lt;Integer, Parada&amp;gt;" style="text;strokeColor=default;fillColor=none;align=left;verticalAlign=middle;spacingLeft=4;spacingRight=4;overflow=hidden;points=[[0,0.5],[1,0.5]];portConstraint=eastwest;rotatable=0;whiteSpace=wrap;html=1;" parent="sRIAlLMjHyxSv_8Lx8CN-78" vertex="1">
          <mxGeometry y="40" width="230" height="30" as="geometry" />
        </mxCell>
        <mxCell id="sRIAlLMjHyxSv_8Lx8CN-68" value="" style="swimlane;startSize=0;strokeWidth=2;" parent="1" vertex="1">
          <mxGeometry x="50" y="680" width="150" height="30" as="geometry" />
        </mxCell>
        <mxCell id="sRIAlLMjHyxSv_8Lx8CN-69" value="Secuencial" style="text;html=1;align=center;verticalAlign=middle;resizable=0;points=[];autosize=1;strokeColor=none;fillColor=none;fontSize=16;" parent="sRIAlLMjHyxSv_8Lx8CN-68" vertex="1">
          <mxGeometry x="5" width="100" height="30" as="geometry" />
        </mxCell>
        <mxCell id="sRIAlLMjHyxSv_8Lx8CN-56" value="&lt;div&gt;&amp;lt;&amp;lt;Interface&amp;gt;&amp;gt;&lt;/div&gt;&lt;div&gt;TramoDAO&lt;/div&gt;" style="swimlane;fontStyle=0;childLayout=stackLayout;horizontal=1;startSize=40;horizontalStack=0;resizeParent=1;resizeParentMax=0;resizeLast=0;collapsible=1;marginBottom=0;whiteSpace=wrap;html=1;" parent="1" vertex="1">
          <mxGeometry x="640" y="520" width="210" height="70" as="geometry" />
        </mxCell>
        <mxCell id="sRIAlLMjHyxSv_8Lx8CN-57" value="buscarTodos(): Map&amp;lt;String, Tramo&amp;gt;" style="text;strokeColor=none;fillColor=none;align=left;verticalAlign=middle;spacingLeft=4;spacingRight=4;overflow=hidden;points=[[0,0.5],[1,0.5]];portConstraint=eastwest;rotatable=0;whiteSpace=wrap;html=1;" parent="sRIAlLMjHyxSv_8Lx8CN-56" vertex="1">
          <mxGeometry y="40" width="210" height="30" as="geometry" />
        </mxCell>
        <mxCell id="sRIAlLMjHyxSv_8Lx8CN-58" value="&lt;div&gt;&amp;lt;&amp;lt;Interface&amp;gt;&amp;gt;&lt;/div&gt;&lt;div&gt;LineaDAO&lt;/div&gt;" style="swimlane;fontStyle=0;childLayout=stackLayout;horizontal=1;startSize=40;horizontalStack=0;resizeParent=1;resizeParentMax=0;resizeLast=0;collapsible=1;marginBottom=0;whiteSpace=wrap;html=1;" parent="1" vertex="1">
          <mxGeometry x="160" y="520" width="210" height="70" as="geometry" />
        </mxCell>
        <mxCell id="sRIAlLMjHyxSv_8Lx8CN-59" value="buscarTodos(): Map&amp;lt;String, Linea&amp;gt;" style="text;strokeColor=none;fillColor=none;align=left;verticalAlign=middle;spacingLeft=4;spacingRight=4;overflow=hidden;points=[[0,0.5],[1,0.5]];portConstraint=eastwest;rotatable=0;whiteSpace=wrap;html=1;" parent="sRIAlLMjHyxSv_8Lx8CN-58" vertex="1">
          <mxGeometry y="40" width="210" height="30" as="geometry" />
        </mxCell>
        <mxCell id="sRIAlLMjHyxSv_8Lx8CN-60" value="&lt;div&gt;&amp;lt;&amp;lt;Interface&amp;gt;&amp;gt;&lt;/div&gt;&lt;div&gt;ParadaDAO&lt;/div&gt;" style="swimlane;fontStyle=0;childLayout=stackLayout;horizontal=1;startSize=40;horizontalStack=0;resizeParent=1;resizeParentMax=0;resizeLast=0;collapsible=1;marginBottom=0;whiteSpace=wrap;html=1;" parent="1" vertex="1">
          <mxGeometry x="400" y="520" width="220" height="70" as="geometry" />
        </mxCell>
        <mxCell id="sRIAlLMjHyxSv_8Lx8CN-61" value="buscarTodos(): Map&amp;lt;Integer, Parada&amp;gt;" style="text;strokeColor=none;fillColor=none;align=left;verticalAlign=middle;spacingLeft=4;spacingRight=4;overflow=hidden;points=[[0,0.5],[1,0.5]];portConstraint=eastwest;rotatable=0;whiteSpace=wrap;html=1;" parent="sRIAlLMjHyxSv_8Lx8CN-60" vertex="1">
          <mxGeometry y="40" width="220" height="30" as="geometry" />
        </mxCell>
        <mxCell id="sRIAlLMjHyxSv_8Lx8CN-81" value="TramoSecuencialDAO" style="swimlane;fontStyle=0;childLayout=stackLayout;horizontal=1;startSize=40;horizontalStack=0;resizeParent=1;resizeParentMax=0;resizeLast=0;collapsible=1;marginBottom=0;whiteSpace=wrap;html=1;" parent="1" vertex="1">
          <mxGeometry x="600" y="750" width="220" height="70" as="geometry" />
        </mxCell>
        <mxCell id="sRIAlLMjHyxSv_8Lx8CN-83" value="+ buscarTodos(): Map&amp;lt;String, Tramo&amp;gt;" style="text;strokeColor=default;fillColor=none;align=left;verticalAlign=middle;spacingLeft=4;spacingRight=4;overflow=hidden;points=[[0,0.5],[1,0.5]];portConstraint=eastwest;rotatable=0;whiteSpace=wrap;html=1;" parent="sRIAlLMjHyxSv_8Lx8CN-81" vertex="1">
          <mxGeometry y="40" width="220" height="30" as="geometry" />
        </mxCell>
        <mxCell id="sRIAlLMjHyxSv_8Lx8CN-84" value="" style="endArrow=none;dashed=1;html=1;dashPattern=1 3;strokeWidth=2;rounded=0;entryX=0;entryY=0.5;entryDx=0;entryDy=0;exitX=0.819;exitY=-0.043;exitDx=0;exitDy=0;edgeStyle=orthogonalEdgeStyle;exitPerimeter=0;" parent="1" source="sRIAlLMjHyxSv_8Lx8CN-75" target="sRIAlLMjHyxSv_8Lx8CN-87" edge="1">
          <mxGeometry width="50" height="50" relative="1" as="geometry">
            <mxPoint x="490" y="760" as="sourcePoint" />
            <mxPoint x="540" y="710" as="targetPoint" />
          </mxGeometry>
        </mxCell>
        <mxCell id="sRIAlLMjHyxSv_8Lx8CN-85" value="" style="endArrow=none;dashed=1;html=1;dashPattern=1 3;strokeWidth=2;rounded=0;entryX=0;entryY=0.5;entryDx=0;entryDy=0;edgeStyle=orthogonalEdgeStyle;startArrow=none;startFill=0;" parent="1" target="sRIAlLMjHyxSv_8Lx8CN-88" edge="1">
          <mxGeometry width="50" height="50" relative="1" as="geometry">
            <mxPoint x="500" y="750" as="sourcePoint" />
            <mxPoint x="507" y="640" as="targetPoint" />
            <Array as="points">
              <mxPoint x="500" y="750" />
            </Array>
          </mxGeometry>
        </mxCell>
        <mxCell id="sRIAlLMjHyxSv_8Lx8CN-87" value="" style="triangle;whiteSpace=wrap;html=1;direction=north;" parent="1" vertex="1">
          <mxGeometry x="265" y="590" width="20" height="20" as="geometry" />
        </mxCell>
        <mxCell id="sRIAlLMjHyxSv_8Lx8CN-88" value="" style="triangle;whiteSpace=wrap;html=1;direction=north;" parent="1" vertex="1">
          <mxGeometry x="490" y="590" width="20" height="20" as="geometry" />
        </mxCell>
        <mxCell id="sRIAlLMjHyxSv_8Lx8CN-90" value="" style="endArrow=none;dashed=1;html=1;dashPattern=1 3;strokeWidth=2;rounded=0;entryX=0;entryY=0.5;entryDx=0;entryDy=0;exitX=0.659;exitY=0.014;exitDx=0;exitDy=0;edgeStyle=orthogonalEdgeStyle;exitPerimeter=0;" parent="1" source="sRIAlLMjHyxSv_8Lx8CN-81" target="sRIAlLMjHyxSv_8Lx8CN-89" edge="1">
          <mxGeometry width="50" height="50" relative="1" as="geometry">
            <mxPoint x="710" y="750" as="sourcePoint" />
            <mxPoint x="744" y="590" as="targetPoint" />
          </mxGeometry>
        </mxCell>
        <mxCell id="sRIAlLMjHyxSv_8Lx8CN-89" value="" style="triangle;whiteSpace=wrap;html=1;direction=north;" parent="1" vertex="1">
          <mxGeometry x="735" y="590" width="20" height="20" as="geometry" />
        </mxCell>
        <mxCell id="sRIAlLMjHyxSv_8Lx8CN-91" value="" style="swimlane;startSize=0;align=center;strokeWidth=2;" parent="1" vertex="1">
          <mxGeometry x="50" y="1000" width="790" height="150" as="geometry" />
        </mxCell>
        <mxCell id="sRIAlLMjHyxSv_8Lx8CN-96" value="" style="swimlane;startSize=0;strokeWidth=2;" parent="1" vertex="1">
          <mxGeometry x="50" y="970" width="150" height="30" as="geometry" />
        </mxCell>
        <mxCell id="sRIAlLMjHyxSv_8Lx8CN-97" value="MySQL" style="text;html=1;align=center;verticalAlign=middle;resizable=0;points=[];autosize=1;strokeColor=none;fillColor=none;fontSize=16;" parent="sRIAlLMjHyxSv_8Lx8CN-96" vertex="1">
          <mxGeometry x="15" width="80" height="30" as="geometry" />
        </mxCell>
        <mxCell id="neTKidcIrnHW-TBtDGIe-1" value="." style="text;html=1;whiteSpace=wrap;strokeColor=none;fillColor=none;align=center;verticalAlign=middle;rounded=0;" vertex="1" parent="1">
          <mxGeometry x="940" y="630" width="60" height="30" as="geometry" />
        </mxCell>
      </root>
    </mxGraphModel>
  </diagram>
</mxfile>
